<svg xmlns="http://www.w3.org/2000/svg" xmlns:xlink="http://www.w3.org/1999/xlink" width="500" zoomAndPan="magnify" viewBox="0 0 375 374.999991" height="500" preserveAspectRatio="xMidYMid meet" version="1.0"><defs><clipPath id="7d3e3c2127"><path d="M 0 85.613281 L 375 85.613281 L 375 106 L 0 106 Z M 0 85.613281 " clip-rule="nonzero"/></clipPath></defs><path fill="#ba58a8" d="M 12.171875 220.359375 L 0 132.269531 L 15.171875 132.269531 L 20.660156 190.597656 L 28.191406 132.269531 L 41.25 132.269531 L 48.648438 190.257812 L 54.375 132.269531 L 69.578125 132.269531 L 57.273438 220.359375 L 42.066406 220.359375 L 34.671875 162.710938 L 27.441406 220.359375 Z M 12.171875 220.359375 " fill-opacity="1" fill-rule="nonzero"/><path fill="#ba58a8" d="M 127.839844 220.359375 L 127.839844 132.269531 L 147.238281 132.269531 C 151.636719 132.269531 155.523438 132.679688 158.863281 133.53125 C 162.203125 134.347656 165.136719 135.679688 167.660156 137.449219 C 170.183594 139.222656 172.089844 141.609375 173.386719 144.644531 C 174.683594 147.679688 175.328125 151.292969 175.328125 155.484375 C 175.328125 157.324219 175.261719 158.929688 175.125 160.394531 C 174.988281 161.824219 174.683594 163.460938 174.203125 165.304688 C 173.726562 167.144531 173.078125 168.78125 172.261719 170.210938 C 171.441406 171.644531 170.285156 173.042969 168.75 174.40625 C 167.214844 175.769531 165.410156 176.929688 163.328125 177.816406 C 168.613281 194.585938 173.214844 208.769531 177.136719 220.394531 L 158.691406 220.394531 L 148.601562 179.824219 L 145.671875 179.824219 L 145.671875 220.394531 Z M 145.671875 168.917969 L 150.75 168.917969 C 152.113281 168.917969 153.308594 168.472656 154.261719 167.554688 C 155.25 166.632812 155.964844 165.472656 156.375 164.074219 C 156.816406 162.679688 157.125 161.382812 157.296875 160.222656 C 157.464844 159.066406 157.566406 157.941406 157.566406 156.882812 C 157.566406 155.824219 157.5 154.769531 157.363281 153.644531 C 157.226562 152.519531 156.953125 151.292969 156.578125 149.960938 C 156.203125 148.597656 155.589844 147.507812 154.703125 146.621094 C 153.851562 145.769531 152.796875 145.324219 151.535156 145.324219 L 145.601562 145.324219 Z M 145.671875 168.917969 " fill-opacity="1" fill-rule="nonzero"/><path fill="#ba58a8" d="M 182.761719 220.359375 L 182.761719 132.269531 L 202.160156 132.269531 C 206.558594 132.269531 210.441406 132.679688 213.785156 133.53125 C 217.125 134.347656 220.058594 135.679688 222.578125 137.449219 C 225.101562 139.222656 227.011719 141.609375 228.308594 144.644531 C 229.601562 147.679688 230.25 151.292969 230.25 155.484375 C 230.25 157.324219 230.183594 158.929688 230.046875 160.394531 C 229.910156 161.824219 229.601562 163.460938 229.125 165.304688 C 228.648438 167.144531 228 168.78125 227.183594 170.210938 C 226.363281 171.644531 225.203125 173.042969 223.671875 174.40625 C 222.136719 175.769531 220.328125 176.929688 218.25 177.816406 C 223.535156 194.585938 228.136719 208.769531 232.058594 220.394531 L 213.613281 220.394531 L 203.523438 179.824219 L 200.589844 179.824219 L 200.589844 220.394531 Z M 200.558594 168.917969 L 205.636719 168.917969 C 207 168.917969 208.191406 168.472656 209.148438 167.554688 C 210.136719 166.632812 210.851562 165.472656 211.261719 164.074219 C 211.703125 162.679688 212.011719 161.382812 212.183594 160.222656 C 212.351562 159.066406 212.453125 157.941406 212.453125 156.882812 C 212.453125 155.824219 212.386719 154.769531 212.25 153.644531 C 212.113281 152.519531 211.839844 151.292969 211.464844 149.960938 C 211.089844 148.597656 210.476562 147.507812 209.589844 146.621094 C 208.738281 145.769531 207.683594 145.324219 206.421875 145.324219 L 200.488281 145.324219 Z M 200.558594 168.917969 " fill-opacity="1" fill-rule="nonzero"/><path fill="#ba58a8" d="M 237.683594 220.359375 L 237.683594 132.269531 L 255.511719 132.269531 L 255.511719 220.359375 Z M 237.683594 220.359375 " fill-opacity="1" fill-rule="nonzero"/><path fill="#ba58a8" d="M 264.816406 191.382812 L 264.816406 161.757812 C 264.816406 140.929688 273.410156 130.53125 290.558594 130.53125 C 307.738281 130.53125 316.363281 140.929688 316.363281 161.757812 L 316.363281 190.941406 C 316.363281 194.449219 316.089844 197.722656 315.578125 200.691406 C 315.066406 203.691406 314.183594 206.519531 312.921875 209.179688 C 311.660156 211.835938 310.058594 214.121094 308.113281 215.996094 C 306.171875 217.871094 303.714844 219.335938 300.75 220.429688 C 297.785156 221.519531 294.375 222.03125 290.558594 222.03125 C 286.773438 222.03125 283.398438 221.484375 280.433594 220.429688 C 277.464844 219.371094 275.011719 217.941406 273.101562 216.132812 C 271.191406 214.324219 269.589844 212.109375 268.328125 209.484375 C 267.066406 206.859375 266.183594 204.066406 265.636719 201.097656 C 265.089844 198.167969 264.816406 194.929688 264.816406 191.382812 Z M 298.566406 195.40625 L 298.566406 157.324219 C 298.566406 148.632812 295.910156 144.304688 290.589844 144.304688 C 288.988281 144.304688 287.625 144.710938 286.535156 145.496094 C 285.410156 146.28125 284.625 147.40625 284.078125 148.769531 C 283.566406 150.167969 283.191406 151.53125 282.988281 152.894531 C 282.785156 154.257812 282.683594 155.722656 282.683594 157.324219 L 282.683594 195.40625 C 282.683594 204.066406 285.339844 208.359375 290.625 208.359375 C 295.875 208.359375 298.566406 204.066406 298.566406 195.40625 Z M 298.566406 195.40625 " fill-opacity="1" fill-rule="nonzero"/><path fill="#ba58a8" d="M 325.703125 220.359375 L 325.703125 132.269531 L 345.101562 132.269531 C 349.5 132.269531 353.386719 132.679688 356.726562 133.53125 C 360.066406 134.347656 363 135.679688 365.523438 137.449219 C 368.046875 139.222656 369.953125 141.609375 371.25 144.644531 C 372.546875 147.679688 373.191406 151.292969 373.191406 155.484375 C 373.191406 157.324219 373.125 158.929688 372.988281 160.394531 C 372.851562 161.824219 372.546875 163.460938 372.066406 165.304688 C 371.589844 167.144531 370.941406 168.78125 370.125 170.210938 C 369.308594 171.644531 368.148438 173.042969 366.613281 174.40625 C 365.078125 175.769531 363.273438 176.929688 361.191406 177.816406 C 366.476562 194.585938 371.078125 208.769531 375 220.394531 L 356.558594 220.394531 L 346.464844 179.824219 L 343.535156 179.824219 L 343.535156 220.394531 Z M 343.535156 168.917969 L 348.613281 168.917969 C 349.976562 168.917969 351.171875 168.472656 352.125 167.554688 C 353.113281 166.632812 353.828125 165.472656 354.238281 164.074219 C 354.683594 162.679688 354.988281 161.382812 355.160156 160.222656 C 355.328125 159.066406 355.433594 157.941406 355.433594 156.882812 C 355.433594 155.824219 355.363281 154.769531 355.226562 153.644531 C 355.089844 152.519531 354.816406 151.292969 354.441406 149.960938 C 354.066406 148.597656 353.453125 147.507812 352.566406 146.621094 C 351.714844 145.769531 350.660156 145.324219 349.398438 145.324219 L 343.464844 145.324219 Z M 343.535156 168.917969 " fill-opacity="1" fill-rule="nonzero"/><path fill="#562c80" d="M 108.339844 166.597656 C 108.511719 166.394531 108.648438 166.222656 108.785156 166.054688 C 126.546875 144.40625 111 130.359375 97.398438 131.007812 C 83.796875 131.65625 79.839844 139.699219 79.089844 147.371094 C 78.546875 153.03125 82.261719 159.816406 87.441406 167.109375 C 65.625 192.949219 64.191406 227.585938 64.191406 227.585938 C 66.273438 222.441406 74.863281 216.917969 74.863281 216.917969 C 75 221.347656 78.476562 226.632812 78.476562 226.632812 C 80.933594 207.097656 86.660156 195.132812 96.648438 181.429688 C 102.238281 196.222656 104.589844 224.691406 104.589844 224.691406 C 108.648438 221.824219 110.589844 209.417969 110.589844 209.417969 C 113.078125 211.53125 118.261719 223.566406 118.261719 223.566406 C 119.148438 212.519531 116.488281 182.722656 108.339844 166.597656 Z M 99.203125 154.769531 C 91.398438 146.996094 91.398438 139.972656 91.398438 139.972656 C 90 129.472656 117.066406 133.359375 99.203125 154.769531 Z M 99.203125 154.769531 " fill-opacity="1" fill-rule="nonzero"/><g clip-path="url(#7d3e3c2127)"><path fill="#562c80" d="M 0 85.667969 L 375 85.667969 L 375 105.949219 L 0 105.949219 Z M 0 85.667969 " fill-opacity="1" fill-rule="nonzero"/></g><path fill="#562c80" d="M 0 246.679688 L 375 246.679688 L 375 266.960938 L 0 266.960938 Z M 0 246.679688 " fill-opacity="1" fill-rule="nonzero"/></svg>